<svg width="111" height="31" viewBox="0 0 111 31" fill="none" xmlns="http://www.w3.org/2000/svg">
<path d="M0.528412 30V0.909095H6.67898V24.929H19.1506V30H0.528412Z" fill="#181818"/>
<path d="M48.8239 15.4545C48.8239 18.6269 48.2225 21.3258 47.0199 23.5511C45.8267 25.7765 44.1979 27.4763 42.1335 28.6506C40.0786 29.8153 37.768 30.3977 35.2017 30.3977C32.6165 30.3977 30.2964 29.8106 28.2415 28.6364C26.1866 27.4621 24.5625 25.7623 23.3693 23.5369C22.1761 21.3116 21.5795 18.6174 21.5795 15.4545C21.5795 12.2822 22.1761 9.58334 23.3693 7.35796C24.5625 5.13258 26.1866 3.4375 28.2415 2.27273C30.2964 1.09849 32.6165 0.511368 35.2017 0.511368C37.768 0.511368 40.0786 1.09849 42.1335 2.27273C44.1979 3.4375 45.8267 5.13258 47.0199 7.35796C48.2225 9.58334 48.8239 12.2822 48.8239 15.4545ZM42.5881 15.4545C42.5881 13.3996 42.2803 11.6667 41.6648 10.2557C41.0587 8.8447 40.2017 7.77463 39.0938 7.04546C37.9858 6.31629 36.6884 5.95171 35.2017 5.95171C33.715 5.95171 32.4176 6.31629 31.3097 7.04546C30.2017 7.77463 29.34 8.8447 28.7244 10.2557C28.1184 11.6667 27.8153 13.3996 27.8153 15.4545C27.8153 17.5095 28.1184 19.2424 28.7244 20.6534C29.34 22.0644 30.2017 23.1345 31.3097 23.8636C32.4176 24.5928 33.715 24.9574 35.2017 24.9574C36.6884 24.9574 37.9858 24.5928 39.0938 23.8636C40.2017 23.1345 41.0587 22.0644 41.6648 20.6534C42.2803 19.2424 42.5881 17.5095 42.5881 15.4545Z" fill="#181818"/>
<path d="M72.6697 10.3125C72.4709 9.62122 72.1915 9.01042 71.8317 8.48012C71.4718 7.94035 71.0315 7.4858 70.5107 7.11648C69.9993 6.73769 69.4122 6.44887 68.7493 6.25001C68.0959 6.05114 67.3715 5.95171 66.576 5.95171C65.0893 5.95171 63.7824 6.32103 62.6555 7.05966C61.5381 7.7983 60.6669 8.87311 60.0419 10.2841C59.4169 11.6856 59.1044 13.3996 59.1044 15.4261C59.1044 17.4527 59.4122 19.1761 60.0277 20.5966C60.6432 22.0171 61.5144 23.1013 62.6413 23.8494C63.7682 24.5881 65.0987 24.9574 66.6328 24.9574C68.0249 24.9574 69.2133 24.7112 70.1982 24.2188C71.1925 23.7169 71.9501 23.0114 72.4709 22.1023C73.0012 21.1932 73.2663 20.1184 73.2663 18.8778L74.5163 19.0625H67.0163V14.4318H79.1896V18.0966C79.1896 20.6534 78.6499 22.8504 77.5703 24.6875C76.4908 26.5152 75.004 27.9261 73.1101 28.9205C71.2161 29.9053 69.0476 30.3977 66.6044 30.3977C63.8771 30.3977 61.4813 29.7964 59.4169 28.5938C57.3525 27.3816 55.7427 25.6629 54.5874 23.4375C53.4415 21.2027 52.8686 18.5511 52.8686 15.483C52.8686 13.125 53.2095 11.0227 53.8913 9.17614C54.5826 7.32008 55.5485 5.74811 56.7891 4.46023C58.0296 3.17235 59.4737 2.19224 61.1215 1.51989C62.7692 0.847542 64.5542 0.511368 66.4766 0.511368C68.1243 0.511368 69.6584 0.752845 71.0788 1.2358C72.4993 1.70929 73.7588 2.38163 74.8572 3.25285C75.9652 4.12406 76.8696 5.16099 77.5703 6.36364C78.2711 7.55682 78.7209 8.87311 78.9197 10.3125H72.6697Z" fill="#181818"/>
<path d="M110.543 15.4545C110.543 18.6269 109.941 21.3258 108.739 23.5511C107.545 25.7765 105.917 27.4763 103.852 28.6506C101.797 29.8153 99.4867 30.3977 96.9205 30.3977C94.3352 30.3977 92.0152 29.8106 89.9602 28.6364C87.9053 27.4621 86.2813 25.7623 85.0881 23.5369C83.8949 21.3116 83.2983 18.6174 83.2983 15.4545C83.2983 12.2822 83.8949 9.58334 85.0881 7.35796C86.2813 5.13258 87.9053 3.4375 89.9602 2.27273C92.0152 1.09849 94.3352 0.511368 96.9205 0.511368C99.4867 0.511368 101.797 1.09849 103.852 2.27273C105.917 3.4375 107.545 5.13258 108.739 7.35796C109.941 9.58334 110.543 12.2822 110.543 15.4545ZM104.307 15.4545C104.307 13.3996 103.999 11.6667 103.384 10.2557C102.777 8.8447 101.92 7.77463 100.812 7.04546C99.7045 6.31629 98.4072 5.95171 96.9205 5.95171C95.4337 5.95171 94.1364 6.31629 93.0284 7.04546C91.9205 7.77463 91.0587 8.8447 90.4432 10.2557C89.8371 11.6667 89.5341 13.3996 89.5341 15.4545C89.5341 17.5095 89.8371 19.2424 90.4432 20.6534C91.0587 22.0644 91.9205 23.1345 93.0284 23.8636C94.1364 24.5928 95.4337 24.9574 96.9205 24.9574C98.4072 24.9574 99.7045 24.5928 100.812 23.8636C101.92 23.1345 102.777 22.0644 103.384 20.6534C103.999 19.2424 104.307 17.5095 104.307 15.4545Z" fill="#181818"/>
</svg>
