<svg width="33" height="33" viewBox="0 0 33 33" fill="none" xmlns="http://www.w3.org/2000/svg">
<path d="M5 22.8137V9.18631H7.92912V20.4382H13.8685V22.8137H5Z" fill="white"/>
<path d="M28 16C28 17.4861 27.7136 18.7503 27.1409 19.7928C26.5726 20.8352 25.797 21.6315 24.8138 22.1816C23.8352 22.7272 22.7348 23 21.5126 23C20.2815 23 19.1766 22.725 18.1979 22.1749C17.2193 21.6248 16.4459 20.8286 15.8776 19.7861C15.3094 18.7437 15.0253 17.4816 15.0253 16C15.0253 14.5139 15.3094 13.2497 15.8776 12.2072C16.4459 11.1648 17.2193 10.3707 18.1979 9.8251C19.1766 9.27503 20.2815 9 21.5126 9C22.7348 9 23.8352 9.27503 24.8138 9.8251C25.797 10.3707 26.5726 11.1648 27.1409 12.2072C27.7136 13.2497 28 14.5139 28 16ZM25.0303 16C25.0303 15.0374 24.8837 14.2256 24.5906 13.5646C24.302 12.9037 23.8938 12.4024 23.3662 12.0608C22.8385 11.7193 22.2207 11.5485 21.5126 11.5485C20.8046 11.5485 20.1868 11.7193 19.6591 12.0608C19.1315 12.4024 18.7211 12.9037 18.4279 13.5646C18.1393 14.2256 17.995 15.0374 17.995 16C17.995 16.9626 18.1393 17.7744 18.4279 18.4354C18.7211 19.0963 19.1315 19.5976 19.6591 19.9392C20.1868 20.2807 20.8046 20.4515 21.5126 20.4515C22.2207 20.4515 22.8385 20.2807 23.3662 19.9392C23.8938 19.5976 24.302 19.0963 24.5906 18.4354C24.8837 17.7744 25.0303 16.9626 25.0303 16Z" fill="white"/>
<rect x="1" y="1" width="31" height="31" rx="4" stroke="white" stroke-width="2"/>
</svg>
